<svg xmlns="http://www.w3.org/2000/svg" xmlns:xlink="http://www.w3.org/1999/xlink" version="1.1" x="0px" y="0px" viewBox="0 0 100 100" style="enable-background:new 0 0 100 100;" xml:space="preserve"><g><path d="M93.2,84.8L70.6,62.3c4.3-6,6.8-13.3,6.8-21.2C77.4,21,61.2,4.8,41.1,4.8C21,4.8,4.8,21,4.8,41.1S21,77.4,41.1,77.4   c7.8,0,15.1-2.5,21-6.7l22.6,22.6c2,2,5.4,2,7.4,0l1.1-1.1C95.2,90.2,95.2,86.9,93.2,84.8z M41.1,66.6c-14.1,0-25.5-11.4-25.5-25.5   S27,15.6,41.1,15.6c14.1,0,25.5,11.4,25.5,25.5S55.2,66.6,41.1,66.6z"></path><path d="M29,36.5c-2.5,0-4.5,2-4.5,4.5s2,4.5,4.5,4.5h24.2c2.5,0,4.5-2,4.5-4.5s-2-4.5-4.5-4.5H29z"></path></g></svg>