<svg xmlns="http://www.w3.org/2000/svg" viewBox="0 0 16 16" enable-background="new 0 0 16 16" x="0px" y="0px"><g><path d="M14.002 13h-2.002v-2h2.002l-.002-5.001-12.001.001.001 5.002 2-.002v2h-2.001c-1.103 0-1.999-.896-1.999-1.998v-5.003c0-1.103.896-1.999 1.999-1.999h12.003c1.102 0 1.998.896 1.998 1.999v5.003c0 1.102-.896 1.998-1.998 1.998zM12 16h-8c-.552 0-1-.447-1-1v-6c0-.552.448-1 1-1h8c.553 0 1 .448 1 1v6c0 .553-.447 1-1 1zm-7-2h6v-4h-6v4zM12 6h-8c-.552 0-1-.448-1-1v-4c0-.552.448-1 1-1h8c.553 0 1 .448 1 1v4c0 .552-.447 1-1 1zm-7-2h6v-2h-6v2z"></path></g></svg>