<svg xmlns="http://www.w3.org/2000/svg" xmlns:xlink="http://www.w3.org/1999/xlink" version="1.1" x="0px" y="0px" viewBox="0 0 32 32" style="enable-background:new 0 0 32 32;" xml:space="preserve"><g><path d="M31,14H13c-0.552,0-1-0.448-1-1s0.448-1,1-1h18c0.553,0,1,0.448,1,1S31.553,14,31,14z"></path><path d="M31,17H13c-0.552,0-1-0.448-1-1s0.448-1,1-1h18c0.553,0,1,0.448,1,1S31.553,17,31,17z"></path><path d="M26,20H13c-0.552,0-1-0.447-1-1s0.448-1,1-1h13c0.553,0,1,0.447,1,1S26.553,20,26,20z"></path><path d="M31,25H13c-0.552,0-1-0.447-1-1s0.448-1,1-1h18c0.553,0,1,0.447,1,1S31.553,25,31,25z"></path><path d="M31,28H13c-0.552,0-1-0.447-1-1s0.448-1,1-1h18c0.553,0,1,0.447,1,1S31.553,28,31,28z"></path><path d="M17,31h-4c-0.552,0-1-0.447-1-1s0.448-1,1-1h4c0.553,0,1,0.447,1,1S17.553,31,17,31z"></path><path d="M31,3H13c-0.552,0-1-0.448-1-1s0.448-1,1-1h18c0.553,0,1,0.448,1,1S31.553,3,31,3z"></path><path d="M31,6H13c-0.552,0-1-0.448-1-1s0.448-1,1-1h18c0.553,0,1,0.448,1,1S31.553,6,31,6z"></path><path d="M22,9h-9c-0.552,0-1-0.448-1-1s0.448-1,1-1h9c0.553,0,1,0.448,1,1S22.553,9,22,9z"></path><path d="M7.504,10H2.496C1.12,10,0,8.88,0,7.504V2.496C0,1.12,1.12,0,2.496,0h5.008C8.88,0,10,1.12,10,2.496v5.008   C10,8.88,8.88,10,7.504,10z M2.496,2C2.223,2,2,2.223,2,2.496v5.008C2,7.777,2.223,8,2.496,8h5.008C7.777,8,8,7.777,8,7.504V2.496   C8,2.223,7.777,2,7.504,2H2.496z"></path><path d="M7.504,21H2.496C1.12,21,0,19.88,0,18.504v-5.008C0,12.12,1.12,11,2.496,11h5.008C8.88,11,10,12.12,10,13.496v5.008   C10,19.88,8.88,21,7.504,21z M2.496,13C2.223,13,2,13.223,2,13.496v5.008C2,18.777,2.223,19,2.496,19h5.008   C7.777,19,8,18.777,8,18.504v-5.008C8,13.223,7.777,13,7.504,13H2.496z"></path><path d="M7.504,32H2.496C1.12,32,0,30.88,0,29.504v-5.008C0,23.12,1.12,22,2.496,22h5.008C8.88,22,10,23.12,10,24.496v5.008   C10,30.88,8.88,32,7.504,32z M2.496,24C2.223,24,2,24.223,2,24.496v5.008C2,29.777,2.223,30,2.496,30h5.008   C7.777,30,8,29.777,8,29.504v-5.008C8,24.223,7.777,24,7.504,24H2.496z"></path></g></svg>