<svg viewBox="0 0 2119.236 2198.397" xmlns="http://www.w3.org/2000/svg"><path style="fill:#fff" d="M254.206 671.481a254.223 254.223 0 0 0-203.702 406.302c29.637 39.705 71.056 67.684 116.782 86.737 212.966 88.677 390.746 245.084 511.507 441.585 80.256 130.64 134.276 276.127 154.27 428.078 4.422 33.118 15.15 65.114 35.19 91.882a180.083 180.083 0 0 0 252.124 36.477c29.544-22.11 49.01-53.825 63.123-87.931 50.243-121.137 140.97-221.218 251.757-289.337 110.881-68.213 238.23-104.766 366.517-96.016 47.514 3.293 95.203-3.367 135.801-28.3a205.638 205.638 0 0 0-214.82-350.713c-44.69 27.38-73.04 72.121-90.963 121.376-47.467 131.016-143.401 238.93-262.139 311.847a620.1 620.1 0 0 1-163.182 71.484c-96.063 25.733-211.654-9.75-305.6-89.676-93.851-79.88-168.438-167.604-228.418-265.172-99.356-161.782-156.056-346.12-162.172-473.468-6.115-127.487-23.481-174.12-52.648-213.166a253.94 253.94 0 0 0-203.427-101.989"/><path d="M1160.253 19.014c-12.701 8.185-25.45 18.817-38.67 31.519l-.47.47-.47.47C980.312 196.792 924.613 477.36 903.866 671.038l-.047.095c-14.113 136.85-8.186 270.641 4.14 397.706-188.598 275.252-446.444 520.584-711.064 601.499l20.606 67.225c267.442-81.762 514.468-305.36 703.489-563.676 4.704 32.601 6.586 70.095 12.325 100.156 4.61 24.086 24.745 110.834 59.605 184.458 17.406 36.788 36.693 70.8 69.624 91.264 16.465 10.35 38.764 15.9 60.122 10.867 21.404-5.034 39.422-18.817 55.04-37.4 140.802-167.945 212.59-445.69 364.87-661.62-2.164 31.237.8 62.85 13.784 91.782 11.573 25.45 31.849 49.16 61.204 60.169 29.308 11.008 64.12 8.138 100.673-7.151 45.632-19.053 76.446-62.803 110.27-115.539 33.918-52.736 67.884-116.198 102.555-177.401 34.577-61.157 69.907-119.867 103.825-161.219 33.872-41.398 64.685-61.015 84.35-61.015l-.048-70.283c-55.888 0-99.45 38.858-138.684 86.748-39.235 47.843-75.505 109.141-110.694 171.239-35.094 62.003-68.824 124.9-100.39 173.967-31.52 49.066-63.792 82.655-78.234 88.677-25.31 10.585-39.94 9.456-48.925 6.116-8.939-3.388-15.854-10.115-21.829-23.287-11.855-26.25-10.867-75.317 1.412-104.907l9.503-22.863-18.442-16.654-32.413-29.12-27.003-24.462-23.427 27.944c-200.97 239.64-272.853 564.663-406.221 723.765-9.315 11.149-15.478 13.736-17.36 14.113-1.881.47-2.022.847-6.82-2.07-9.504-5.975-28.321-30.202-43.14-61.721-29.825-63.039-51.23-152.468-54.1-167.663-9.879-51.372-14.771-112.811-21.17-171.568 68.825-103.731 128.43-210.944 175.285-315.71 89.853-200.876 144.188-419.628 151.904-571.203 3.904-75.74 1.223-134.92-33.166-175.707-17.171-20.323-48.55-31.096-75.74-24.792-13.69 3.152-26.533 8.985-39.235 17.218zm55.041 51.23c6.822-1.552 2.682-2.54 6.257 1.74 7.198 8.469 20.182 57.864 16.654 126.736-7.057 137.838-59.51 353.156-145.835 546.082-34.201 76.351-77.152 153.926-124.29 230.701-5.315-96.721-4.563-197.724 5.693-296.986v-.188c19.946-186.104 83.643-459.71 197.112-577.554 21.123-20.087 37.776-28.978 44.456-30.578z" style="fill:#2b936b"/></svg>