<svg viewBox="0 0 20.264 21.02" xmlns="http://www.w3.org/2000/svg"><path d="M11.67.001a.7.7 0 0 0-.2.016q-.193.047-.374.166a2.5 2.5 0 0 0-.371.3l-.004.005-.004.006c-1.342 1.389-1.874 4.07-2.073 5.922v.002h-.002c-.135 1.308-.077 2.587.042 3.802a19.8 19.8 0 0 1-2.616 3.102c-.724-1.375-1.137-2.836-1.187-3.889-.058-1.218-.225-1.664-.504-2.037a2.431 2.431 0 0 0-3.893 2.91c.284.38.679.646 1.116.828a10.4 10.4 0 0 1 3.822 2.772c-1.12.956-2.321 1.692-3.537 2.064l.195.645c1.329-.406 2.605-1.181 3.777-2.176q.34.442.635.918a10.45 10.45 0 0 1 1.475 4.094c.042.317.144.62.336.877.57.762 1.648.919 2.41.35.283-.212.47-.516.605-.842.48-1.159 1.347-2.114 2.407-2.766s2.277-1.001 3.503-.918c.455.03.91-.032 1.3-.27a1.966 1.966 0 1 0-2.055-3.353c-.428.262-.699.689-.87 1.16-.453 1.253-1.37 2.283-2.505 2.98a6 6 0 0 1-1.56.684c-.92.246-2.025-.094-2.923-.857a10.5 10.5 0 0 1-2.183-2.535l-.014-.024a19.4 19.4 0 0 0 2.389-2.713c.045.312.064.67.119.957.044.231.235 1.06.568 1.764.167.352.35.679.666.875.158.098.372.15.576.101.205-.048.376-.179.526-.357 1.346-1.606 2.032-4.261 3.488-6.326-.02.299.008.602.133.879.11.243.303.469.584.574s.613.078.963-.068c.436-.183.73-.6 1.054-1.104s.65-1.113.98-1.697c.332-.585.669-1.145.993-1.541s.62-.584.807-.584v-.672c-.535 0-.952.372-1.327.83-.374.458-.722 1.043-1.058 1.637-.336.593-.658 1.195-.96 1.664-.3.47-.609.79-.747.848-.242.1-.383.09-.469.058s-.152-.097-.209-.223c-.113-.25-.103-.72.014-1.003l.092-.22-.176-.157-.31-.28-.26-.232-.223.265c-1.922 2.291-2.61 5.4-3.885 6.92-.09.107-.148.133-.166.137s-.019.007-.064-.021c-.092-.057-.27-.289-.413-.59-.284-.602-.49-1.457-.517-1.602-.094-.491-.142-1.079-.203-1.64a21 21 0 0 0 1.676-3.02c.859-1.92 1.379-4.012 1.453-5.46.037-.725.012-1.29-.317-1.68a.76.76 0 0 0-.525-.254m-.008.659c.003 0 .002.009.02.029.068.081.191.552.158 1.21-.067 1.319-.57 3.379-1.395 5.224-.326.73-.737 1.47-1.187 2.205a18 18 0 0 1 .054-2.84v-.002c.191-1.78.8-4.395 1.885-5.522.202-.192.36-.276.424-.29.032-.008.039-.015.041-.014"/></svg>