<?xml version="1.0" encoding="UTF-8" standalone="no"?>
<svg
   viewBox="0 0 20.263626 21.019749"
   version="1.1"
   xmlns="http://www.w3.org/2000/svg">
  <path
     style="fill:#ffffff;"
     d="m 11.669876,0.00146825 c -0.06737,-0.0042 -0.134017,4.9e-4 -0.199219,0.01563 -0.130409,0.03027 -0.253127,0.08752 -0.375,0.166015 -0.121866,0.0785 -0.24432,0.17885 -0.371094,0.300782 l -0.0039,0.0039 -0.0039,0.0059 C 9.3745787,1.8829263 8.8428437,4.5644553 8.6444847,6.4155653 v 0.002 h -0.002 C 8.5072037,7.7260563 8.5654547,9.0054252 8.6835047,10.2203 7.916505,11.33948 7.028843,12.405026 6.068313,13.321865 5.34373,11.946733 4.931076,10.486221 4.880813,9.4331942 4.822663,8.2149853 4.65602,7.7694643 4.376907,7.3960843 3.918521,6.7828873 3.197184,6.4220223 2.431594,6.4214753 c -0.525166,-3.57e-4 -1.036428,0.169902 -1.45703104,0.484375 -1.074907,0.803675 -1.29394,2.3255079 -0.490234,3.4003897 0.2834,0.379023 0.67837204,0.646126 1.11523404,0.828125 1.477718,0.615621 2.778407,1.574815 3.822266,2.771485 -1.120142,0.955792 -2.320911,1.692556 -3.53711,2.064453 l 0.195313,0.644531 c 1.328806,-0.406331 2.604564,-1.180999 3.777344,-2.175781 0.225738,0.294804 0.439261,0.599889 0.634765,0.917969 0.767383,1.248505 1.282584,2.640901 1.47461,4.09375 0.04187,0.316731 0.1446327,0.621073 0.3359367,0.876953 0.569537,0.761782 1.648337,0.919099 2.4101573,0.349609 0.282953,-0.211525 0.47006,-0.515501 0.605468,-0.841797 0.48061,-1.158127 1.346604,-2.113752 2.40625,-2.765625 1.059644,-0.651871 2.27734,-1.001373 3.503907,-0.917968 0.454548,0.03091 0.910294,-0.03161 1.298828,-0.269532 0.926001,-0.567062 1.217358,-1.777067 0.65039,-2.703125 -0.567034,-0.926163 -1.778975,-1.217524 -2.705078,-0.65039 -0.427361,0.26171 -0.698503,0.688973 -0.86914,1.160156 -0.453641,1.252641 -1.370869,2.282828 -2.50586,2.980469 -0.486056,0.298754 -1.009463,0.535909 -1.560547,0.683593 C 10.618572,17.599263 9.5130437,17.259475 8.6151877,16.495694 7.71733,15.731915 7.004951,14.893378 6.431594,13.960537 c -0.0048,-0.0077 -0.0089,-0.01569 -0.01367,-0.02344 0.867887,-0.810694 1.6724877,-1.734275 2.3886727,-2.712891 0.04529,0.31197 0.0643,0.669515 0.11914,0.957031 0.04401,0.230742 0.235441,1.059999 0.56836,1.763672 0.166458,0.351835 0.350791,0.679006 0.6660153,0.875 0.157612,0.098 0.371566,0.15017 0.576172,0.101563 0.204601,-0.04861 0.376027,-0.179259 0.525391,-0.357422 1.346207,-1.605929 2.031967,-4.261378 3.488281,-6.3261717 -0.02056,0.2989949 0.0079,0.6025569 0.132812,0.8789059 0.110052,0.243651 0.303477,0.469077 0.583985,0.574219 0.280503,0.10514 0.613407,0.0776 0.962891,-0.06836 0.436651,-0.1824 0.730794,-0.599267 1.054687,-1.103516 0.323891,-0.5042499 0.649688,-1.1127309 0.980469,-1.6972659 0.33078,-0.584536 0.668194,-1.145294 0.992187,-1.541015 0.323994,-0.395722 0.619224,-0.583985 0.806641,-0.583985 v -0.671875 c -0.534383,0 -0.951418,0.37237 -1.326172,0.830078 -0.37475,0.457713 -0.722798,1.043321 -1.058594,1.636719 -0.335795,0.593398 -0.657575,1.194816 -0.958984,1.664063 -0.301409,0.4692459 -0.609827,0.7899279 -0.748047,0.8476559 -0.241992,0.101074 -0.382923,0.09076 -0.46875,0.05859 -0.08583,-0.03217 -0.152267,-0.09709 -0.208984,-0.222656 -0.113429,-0.251142 -0.103547,-0.7210829 0.01367,-1.0039069 l 0.0918,-0.21875 -0.175781,-0.158203 C 15.237953,7.2909203 15.29782,7.3459223 15.113237,7.1792873 l -0.259765,-0.232422 -0.222657,0.265625 c -1.921364,2.2906689 -2.609935,5.3991377 -3.884765,6.9199217 -0.08942,0.106664 -0.148017,0.13244 -0.166016,0.136719 -0.018,0.0042 -0.0189,0.0068 -0.06445,-0.02148 -0.09109,-0.05663 -0.269634,-0.288698 -0.412109,-0.589844 C 9.8185207,13.055518 9.6135687,12.201381 9.5858967,12.056244 9.4921667,11.564896 9.4443597,10.977056 9.3827707,10.415619 10.040974,9.4237142 10.6104,8.3978963 11.058553,7.3960883 c 0.859104,-1.920484 1.379291,-4.012304 1.453125,-5.460938 0.03691,-0.724315 0.01204,-1.29007905 -0.316407,-1.67968705 -0.123146,-0.146105 -0.32329,-0.241298 -0.52539,-0.253906 z m -0.0078,0.658203 c 0.0025,8.44e-4 0.0024,0.009 0.01953,0.0293 0.06846,0.08123 0.191789,0.55194605 0.158203,1.21093705 -0.06718,1.317981 -0.569227,3.377743 -1.394532,5.222657 -0.326488,0.729843 -0.7371633,1.4711779 -1.1875003,2.2050779 -0.05073,-0.9247309 -0.04339,-1.8903979 0.05469,-2.8398439 v -0.002 c 0.190844,-1.779673 0.7999663,-4.394517 1.8847663,-5.52148405 0.201902,-0.19239 0.360015,-0.276204 0.423828,-0.291016 0.03233,-0.0075 0.03848,-0.01452 0.04101,-0.01367 z"
     id="path196" />
</svg>
