<svg height="512pt" viewBox="0 -79 512 512" width="512pt" xmlns="http://www.w3.org/2000/svg"><path d="m512 317.792969v17.65625c-.027344 9.738281-7.914062 17.625-17.65625 17.652343h-476.6875c-9.742188-.027343-17.6289062-7.914062-17.65625-17.652343v-17.65625zm0 0" fill="#e6e7e8"/><path d="m512 17.65625v300.136719h-512v-300.136719c.0273438-9.742188 7.914062-17.6289062 17.65625-17.65625h476.6875c9.742188.0273438 17.628906 7.917969 17.65625 17.65625zm0 0" fill="#c03a2b"/><path d="m17.65625 0h229.515625v176.550781h-247.171875v-158.894531c0-9.75 7.902344-17.65625 17.65625-17.65625zm0 0" fill="#285680"/><path d="m247.171875 35.3125h264.828125v35.308594h-264.828125zm0 0" fill="#e6e7e8"/><path d="m247.171875 105.929688h264.828125v35.3125h-264.828125zm0 0" fill="#e6e7e8"/><path d="m0 176.550781h512v35.3125h-512zm0 0" fill="#e6e7e8"/><path d="m320.617188 282.484375h191.382812v-35.3125h-512v35.3125h191.382812" fill="#e6e7e8"/><g fill="#ecf0f1"><path d="m17.65625 8.828125 4.09375 8.289063 9.148438 1.332031-6.621094 6.453125 1.5625 9.109375-8.183594-4.296875-8.183594 4.296875 1.5625-9.109375-6.621094-6.453125 9.144532-1.332031zm0 0"/><path d="m52.964844 8.828125 4.097656 8.289063 9.144531 1.332031-6.621093 6.453125 1.5625 9.109375-8.183594-4.296875-8.183594 4.296875 1.5625-9.109375-6.621094-6.453125 9.148438-1.332031zm0 0"/><path d="m88.277344 8.828125 4.09375 8.289063 9.144531 1.332031-6.617187 6.453125 1.5625 9.109375-8.183594-4.296875-8.183594 4.296875 1.5625-9.109375-6.621094-6.453125 9.144532-1.332031zm0 0"/><path d="m123.585938 8.828125 4.097656 8.289063 9.144531 1.332031-6.621094 6.453125 1.5625 9.109375-8.183593-4.296875-8.183594 4.296875 1.5625-9.109375-6.621094-6.453125 9.144531-1.332031zm0 0"/><path d="m158.898438 8.828125 4.09375 8.289063 9.144531 1.332031-6.621094 6.453125 1.5625 9.109375-8.179687-4.296875-8.183594 4.296875 1.5625-9.109375-6.621094-6.453125 9.144531-1.332031zm0 0"/><path d="m194.207031 8.828125 4.097657 8.289063 9.144531 1.332031-6.621094 6.453125 1.5625 9.109375-8.183594-4.296875-8.183593 4.296875 1.5625-9.109375-6.621094-6.453125 9.144531-1.332031zm0 0"/><path d="m229.515625 8.828125 4.097656 8.289063 9.144531 1.332031-6.621093 6.453125 1.5625 9.109375-8.183594-4.296875-8.179687 4.296875 1.5625-9.109375-6.621094-6.453125 9.144531-1.332031zm0 0"/><path d="m37.515625 42.257812 4.097656 8.289063 9.144531 1.332031-6.621093 6.453125 1.5625 9.109375-8.183594-4.304687-8.179687 4.304687 1.5625-9.109375-6.621094-6.453125 9.144531-1.332031zm0 0"/><path d="m72.828125 42.257812 4.097656 8.289063 9.144531 1.332031-6.621093 6.453125 1.5625 9.109375-8.183594-4.304687-8.183594 4.304687 1.5625-9.109375-6.621093-6.453125 9.144531-1.332031zm0 0"/><path d="m108.136719 42.257812 4.097656 8.289063 9.144531 1.332031-6.621094 6.453125 1.5625 9.109375-8.183593-4.304687-8.183594 4.304687 1.5625-9.109375-6.617187-6.453125 9.144531-1.332031zm0 0"/><path d="m143.449219 42.257812 4.09375 8.289063 9.148437 1.332031-6.621094 6.453125 1.5625 9.109375-8.183593-4.304687-8.183594 4.304687 1.5625-9.109375-6.621094-6.453125 9.144531-1.332031zm0 0"/><path d="m178.757812 42.257812 4.097657 8.289063 9.144531 1.332031-6.621094 6.453125 1.5625 9.109375-8.183594-4.304687-8.183593 4.304687 1.5625-9.109375-6.621094-6.453125 9.148437-1.332031zm0 0"/><path d="m214.070312 42.257812 4.09375 8.289063 9.144532 1.332031-6.617188 6.453125 1.5625 9.109375-8.183594-4.304687-8.183593 4.304687 1.5625-9.109375-6.621094-6.453125 9.144531-1.332031zm0 0"/><path d="m17.65625 75.679688 4.09375 8.296874 9.148438 1.324219-6.621094 6.453125 1.5625 9.117188-8.183594-4.304688-8.183594 4.304688 1.5625-9.117188-6.621094-6.453125 9.144532-1.324219zm0 0"/><path d="m52.964844 75.679688 4.097656 8.296874 9.144531 1.324219-6.621093 6.453125 1.5625 9.117188-8.183594-4.304688-8.183594 4.304688 1.5625-9.117188-6.621094-6.453125 9.148438-1.324219zm0 0"/><path d="m88.277344 75.679688 4.09375 8.296874 9.144531 1.324219-6.617187 6.453125 1.5625 9.117188-8.183594-4.304688-8.183594 4.304688 1.5625-9.117188-6.621094-6.453125 9.144532-1.324219zm0 0"/><path d="m123.585938 75.679688 4.097656 8.296874 9.144531 1.324219-6.621094 6.453125 1.5625 9.117188-8.183593-4.304688-8.183594 4.304688 1.5625-9.117188-6.621094-6.453125 9.144531-1.324219zm0 0"/><path d="m158.898438 75.679688 4.09375 8.296874 9.144531 1.324219-6.621094 6.453125 1.5625 9.117188-8.179687-4.304688-8.183594 4.304688 1.5625-9.117188-6.621094-6.453125 9.144531-1.324219zm0 0"/><path d="m194.207031 75.679688 4.097657 8.296874 9.144531 1.324219-6.621094 6.453125 1.5625 9.117188-8.183594-4.304688-8.183593 4.304688 1.5625-9.117188-6.621094-6.453125 9.144531-1.324219zm0 0"/><path d="m229.515625 75.679688 4.097656 8.296874 9.144531 1.324219-6.621093 6.453125 1.5625 9.117188-8.183594-4.304688-8.179687 4.304688 1.5625-9.117188-6.621094-6.453125 9.144531-1.324219zm0 0"/><path d="m17.65625 142.539062 4.09375 8.289063 9.148438 1.332031-6.621094 6.453125 1.5625 9.109375-8.183594-4.296875-8.183594 4.296875 1.5625-9.109375-6.621094-6.453125 9.144532-1.332031zm0 0"/><path d="m52.964844 142.539062 4.097656 8.289063 9.144531 1.332031-6.621093 6.453125 1.5625 9.109375-8.183594-4.296875-8.183594 4.296875 1.5625-9.109375-6.621094-6.453125 9.148438-1.332031zm0 0"/><path d="m88.277344 142.539062 4.09375 8.289063 9.144531 1.332031-6.617187 6.453125 1.5625 9.109375-8.183594-4.296875-8.183594 4.296875 1.5625-9.109375-6.621094-6.453125 9.144532-1.332031zm0 0"/><path d="m123.585938 142.539062 4.097656 8.289063 9.144531 1.332031-6.621094 6.453125 1.5625 9.109375-8.183593-4.296875-8.183594 4.296875 1.5625-9.109375-6.621094-6.453125 9.144531-1.332031zm0 0"/><path d="m158.898438 142.539062 4.09375 8.289063 9.144531 1.332031-6.621094 6.453125 1.5625 9.109375-8.179687-4.296875-8.183594 4.296875 1.5625-9.109375-6.621094-6.453125 9.144531-1.332031zm0 0"/><path d="m194.207031 142.539062 4.097657 8.289063 9.144531 1.332031-6.621094 6.453125 1.5625 9.109375-8.183594-4.296875-8.183593 4.296875 1.5625-9.109375-6.621094-6.453125 9.144531-1.332031zm0 0"/><path d="m229.515625 142.539062 4.097656 8.289063 9.144531 1.332031-6.621093 6.453125 1.5625 9.109375-8.183594-4.296875-8.179687 4.296875 1.5625-9.109375-6.621094-6.453125 9.144531-1.332031zm0 0"/><path d="m37.515625 109.109375 4.097656 8.289063 9.144531 1.332031-6.621093 6.453125 1.5625 9.109375-8.183594-4.296875-8.179687 4.296875 1.5625-9.109375-6.621094-6.453125 9.144531-1.332031zm0 0"/><path d="m72.828125 109.109375 4.097656 8.289063 9.144531 1.332031-6.621093 6.453125 1.5625 9.109375-8.183594-4.296875-8.183594 4.296875 1.5625-9.109375-6.621093-6.453125 9.144531-1.332031zm0 0"/><path d="m108.136719 109.109375 4.097656 8.289063 9.144531 1.332031-6.621094 6.453125 1.5625 9.109375-8.183593-4.296875-8.183594 4.296875 1.5625-9.109375-6.617187-6.453125 9.144531-1.332031zm0 0"/><path d="m143.449219 109.109375 4.09375 8.289063 9.148437 1.332031-6.621094 6.453125 1.5625 9.109375-8.183593-4.296875-8.183594 4.296875 1.5625-9.109375-6.621094-6.453125 9.144531-1.332031zm0 0"/><path d="m178.757812 109.109375 4.097657 8.289063 9.144531 1.332031-6.621094 6.453125 1.5625 9.109375-8.183594-4.296875-8.183593 4.296875 1.5625-9.109375-6.621094-6.453125 9.148437-1.332031zm0 0"/><path d="m214.070312 109.109375 4.09375 8.289063 9.144532 1.332031-6.617188 6.453125 1.5625 9.109375-8.183594-4.296875-8.183593 4.296875 1.5625-9.109375-6.621094-6.453125 9.144531-1.332031zm0 0"/></g></svg>