<svg width="18" height="16" viewBox="0 0 18 16" fill="none" xmlns="http://www.w3.org/2000/svg"><g clip-path="url(#a)"><path d="M6.818 13.254a.35.35 0 0 0-.318-.203.34.34 0 0 0-.313.193l-.24.48a.5.5 0 0 1-.921-.066L4.5 12.081l-.332.996a1.35 1.35 0 0 1-1.28.923H2.5a.5.5 0 1 1 0-1h.387a.35.35 0 0 0 .333-.24l.568-1.707a.75.75 0 0 1 1.424 0l.433 1.301c.618-.506 1.69-.303 2.063.443a.35.35 0 0 0 .292.195v-2.566l4-3.971V5H7.75A.75.75 0 0 1 7 4.25V0H.75A.75.75 0 0 0 0 .75v14.5c0 .416.334.75.75.75h10.5c.416 0 .75-.334.75-.75V14l-4-.003a1.34 1.34 0 0 1-1.182-.743M12 3.81a.75.75 0 0 0-.219-.528L8.721.22A.75.75 0 0 0 8.192 0H8v4h4zm-3 7.033V13h2.156l5.052-5.087-2.12-2.121zm8.767-5.613-.996-.996a.796.796 0 0 0-1.125 0l-.852.852 2.121 2.12.852-.85a.795.795 0 0 0 0-1.126" fill="#273849"/></g><defs><clipPath id="a"><path fill="#fff" d="M0 0h18v16H0z"/></clipPath></defs></svg>