<svg width="18" height="18" viewBox="0 0 18 18" fill="none" xmlns="http://www.w3.org/2000/svg">
<path d="M9 0.28125C4.18511 0.28125 0.28125 4.18651 0.28125 9C0.28125 13.8163 4.18511 17.7188 9 17.7188C13.8149 17.7188 17.7188 13.8163 17.7188 9C17.7188 4.18651 13.8149 0.28125 9 0.28125ZM9 4.14844C9.81548 4.14844 10.4766 4.80952 10.4766 5.625C10.4766 6.44048 9.81548 7.10156 9 7.10156C8.18452 7.10156 7.52344 6.44048 7.52344 5.625C7.52344 4.80952 8.18452 4.14844 9 4.14844ZM10.9688 13.0781C10.9688 13.3111 10.7799 13.5 10.5469 13.5H7.45312C7.22014 13.5 7.03125 13.3111 7.03125 13.0781V12.2344C7.03125 12.0014 7.22014 11.8125 7.45312 11.8125H7.875V9.5625H7.45312C7.22014 9.5625 7.03125 9.37361 7.03125 9.14062V8.29688C7.03125 8.06389 7.22014 7.875 7.45312 7.875H9.70312C9.93611 7.875 10.125 8.06389 10.125 8.29688V11.8125H10.5469C10.7799 11.8125 10.9688 12.0014 10.9688 12.2344V13.0781Z" fill="#273849"/>
</svg>
