<svg width="18" height="18" viewBox="0 0 18 18" fill="none" xmlns="http://www.w3.org/2000/svg"><path d="M9 .281A8.72 8.72 0 0 0 .281 9 8.72 8.72 0 0 0 9 17.719 8.72 8.72 0 0 0 17.719 9 8.72 8.72 0 0 0 9 .281m0 3.867a1.477 1.477 0 1 1 0 2.954 1.477 1.477 0 0 1 0-2.954m1.969 8.93a.42.42 0 0 1-.422.422H7.453a.42.42 0 0 1-.422-.422v-.844c0-.233.19-.421.422-.421h.422v-2.25h-.422a.42.42 0 0 1-.422-.422v-.844c0-.233.19-.422.422-.422h2.25c.233 0 .422.189.422.422v3.515h.422c.233 0 .422.19.422.422z" fill="#273849"/></svg>