<svg width="406.012" height="177.619" viewBox="0 0 107.424 46.995" xmlns="http://www.w3.org/2000/svg"><path d="M90.958 62.404v-1.487h2.994q1.418 0 1.418 1.307v11.932h6.26v2.387h-9.344V63.35q0-.63-.383-.81-.248-.137-.945-.136m13.097 14.139V63.35q0-.946-1.059-.946h-.27v-1.487h2.995q1.42 0 1.42 1.307v14.319zm10.035-13.419v4.3h1.465q3.084 0 3.084-2.138 0-2.162-2.904-2.162zm0 6.485v4.66h1.645q3.286 0 3.287-2.364-.001-2.297-3.062-2.296zm-4.773-7.25v-1.442h6.913q5.494 0 5.494 4.053 0 2.68-2.905 3.445 3.332.699 3.332 3.783 0 4.345-6.034 4.345h-5.066v-13.53q0-.654-.675-.654zm16.003-1.442h5.11q5.72 0 5.72 4.031-.001 3.107-3.265 3.805.81.248 1.306.923.291.405.697 1.442l2.162 5.425h-3.242q-.562-1.598-1.756-4.728-.45-1.148-1.149-1.531-.54-.293-1.823-.292h-.72l.067 4.097q0 .63.405.834.27.134.923.111v1.509h-2.994q-1.419 0-1.418-1.328zm3.04 2.185v4.094h1.576c2.086 0 3.129-.488 3.129-1.967 0-1.478-1.119-2.127-3.355-2.127zm11.116 13.441V63.328q0-.631-.383-.812-.248-.135-.946-.135v-1.464h9.456q1.419 0 1.418 1.307v.945h-6.461v4.142h6.124v2.298h-6.124v4.57h6.688v2.364zM90.26 97.808q-.495 0-.811 1.239l-1.464-.272q.157-.855.495-2.544.114-.54.61-.856.471-.337 1.034-.337.382 0 .81.18.924.406 1.87.788 1.08.405 1.959.406 1.057 0 1.846-.473.945-.54.945-1.554 0-1.102-1.756-2.116-3.084-1.757-3.287-1.914-1.757-1.373-1.756-3.421 0-2.207 1.823-3.402 1.555-1.035 3.896-1.035.81 0 1.869.248.9.247 1.823.495l-.27 2.455q-1.712-.788-3.445-.789-2.634 0-2.634 1.734 0 .99 1.801 1.936 2.904 1.553 3.332 1.892 1.801 1.395 1.802 3.444 0 2.341-1.87 3.693-1.665 1.215-4.12 1.215-1.26 0-4.12-.923-.27-.09-.383-.09zm13.795.652V85.267q0-.945-1.059-.945h-.27v-1.486h2.995q1.42 0 1.42 1.307V98.46zm15.35-15.963q-4.211 0-6.597 2.229-2.364 2.23-2.365 5.989 0 3.692 2.32 5.877 2.34 2.183 6.44 2.183 1.98 0 5.02-1.013v-8.06h-5.81q-1.306 0-1.306 1.418v1.43h1.534q.163-.641.899-.642h1.777v3.985q-1.53.474-2.026.473-2.565 0-4.12-1.575-1.553-1.599-1.553-4.053 0-2.566 1.62-4.233 1.645-1.665 4.278-1.666 1.284 0 4.009.945l.314-2.454-2.25-.54q-1.306-.293-2.184-.293m6.77.339v1.487q1.148 0 1.284.023.654.157.653.923v13.203h2.794V86.268l6.467 12.204h2.333q1.299.001 1.3-1.415v-14.22h-2.619v12.141c-1.924-3.603-3.816-7.223-5.723-10.835q-.427-.811-.496-.901-.337-.406-.923-.406zm-78.944-16.51a5.404 5.404 0 0 0-4.331 8.637c.63.844 1.51 1.438 2.482 1.843 4.527 1.885 8.307 5.21 10.874 9.387 1.706 2.777 2.853 5.87 3.278 9.1.094.704.323 1.383.749 1.952a3.83 3.83 0 0 0 5.359.775c.628-.47 1.043-1.144 1.343-1.869 1.068-2.575 2.996-4.702 5.351-6.15 2.357-1.45 5.063-2.226 7.79-2.04 1.01.07 2.025-.072 2.888-.602a4.37 4.37 0 1 0-4.566-7.455c-.95.582-1.554 1.533-1.935 2.58-1.009 2.785-3.047 5.078-5.571 6.628a13.2 13.2 0 0 1-3.469 1.52c-2.042.547-4.499-.208-6.496-1.907-1.995-1.698-3.581-3.562-4.856-5.636-2.112-3.439-3.318-7.358-3.448-10.065-.13-2.71-.499-3.7-1.119-4.53a5.4 5.4 0 0 0-4.323-2.168" style="fill:#fff;fill-opacity:1;fill-rule:nonzero;stroke:none;stroke-width:.352778" transform="translate(-41.824 -52.052)"/><path d="M66.49 52.456c-.27.174-.541.4-.822.67l-.01.01-.01.01c-2.983 3.089-4.167 9.053-4.608 13.17l-.001.002c-.3 2.909-.174 5.753.088 8.454-4.009 5.851-9.49 11.066-15.115 12.786l.438 1.429c5.685-1.738 10.936-6.491 14.954-11.982.1.693.14 1.49.262 2.129.098.512.526 2.356 1.267 3.921.37.782.78 1.505 1.48 1.94.35.22.824.338 1.278.231s.838-.4 1.17-.795c2.993-3.57 4.519-9.474 7.756-14.064-.046.664.017 1.336.293 1.951.246.541.677 1.045 1.301 1.279s1.363.173 2.14-.152c.97-.405 1.625-1.335 2.344-2.456.721-1.121 1.443-2.47 2.18-3.771.735-1.3 1.486-2.548 2.207-3.427.72-.88 1.375-1.297 1.793-1.297L86.874 61c-1.188 0-2.114.826-2.948 1.844-.834 1.017-1.605 2.32-2.353 3.64-.746 1.318-1.463 2.655-2.134 3.698s-1.356 1.757-1.663 1.885c-.538.225-.849.201-1.04.13-.19-.072-.337-.215-.464-.495-.252-.558-.231-1.601.03-2.23l.202-.486-.392-.354-.689-.619-.574-.52-.498.594c-4.272 5.094-5.8 12.003-8.635 15.385-.198.237-.329.292-.369.3-.04.01-.043.018-.145-.044-.202-.127-.602-.642-.917-1.312-.634-1.34-1.089-3.241-1.15-3.564-.21-1.092-.314-2.398-.45-3.647 1.463-2.205 2.73-4.484 3.726-6.711 1.91-4.27 3.065-8.92 3.229-12.142.083-1.61.026-2.868-.705-3.735-.365-.432-1.032-.661-1.61-.527a2.6 2.6 0 0 0-.834.366zm1.17 1.089c.145-.033.057-.054.133.037.153.18.429 1.23.354 2.694-.15 2.93-1.265 7.507-3.1 11.608-.727 1.623-1.64 3.272-2.642 4.904-.113-2.056-.097-4.203.121-6.313v-.004c.424-3.956 1.778-9.772 4.19-12.277.449-.427.803-.616.945-.65z" style="fill:#fff;fill-opacity:1;fill-rule:nonzero;stroke:none;stroke-width:.352778" transform="translate(-41.824 -52.052)"/></svg>