<svg xmlns="http://www.w3.org/2000/svg" width="106.059" height="106.059" viewBox="0 0 106.059 106.059" xml:space="preserve"><path d="M90.546 15.518c-20.688-20.69-54.347-20.69-75.031-.005-20.688 20.685-20.686 54.345.002 75.034 20.682 20.684 54.341 20.684 75.027-.004 20.686-20.685 20.685-54.343.002-75.025m-5.789 69.24c-17.494 17.494-45.96 17.496-63.455.002-17.498-17.497-17.496-45.966 0-63.46 17.494-17.493 45.959-17.495 63.457.002 17.494 17.494 17.492 45.963-.002 63.456m-7.74-10.757a3 3 0 0 1-1.562 3.943 3 3 0 0 1-3.944-1.562c-2.893-6.689-9.73-11.012-17.421-11.012-7.868 0-14.747 4.319-17.522 11.004a3 3 0 0 1-3.921 1.621 3 3 0 0 1-1.62-3.921c3.71-8.932 12.764-14.703 23.063-14.703 10.084 0 19.084 5.742 22.927 14.63M33.24 38.671a6.201 6.201 0 1 1 12.4 0 6.201 6.201 0 0 1-12.4 0m28.117 0a6.201 6.201 0 0 1 12.403 0c0 3.426-2.776 6.202-6.2 6.202s-6.203-2.776-6.203-6.202"/></svg>